# Wavefront OBJ file automatically generated by Tiled2Unity

# Vertices (Count = 279)
v 0 -16 0
v -16 -16 0
v -16 0 0
v 0 0 0
v -32 -16 0
v -32 0 0
v -48 -16 0
v -48 0 0
v -64 -16 0
v -64 0 0
v -80 -16 0
v -80 0 0
v -96 -16 0
v -96 0 0
v -112 -16 0
v -112 0 0
v -128 -16 0
v -128 0 0
v -144 -16 0
v -144 0 0
v -160 -16 0
v -160 0 0
v -176 -16 0
v -176 0 0
v -192 -16 0
v -192 0 0
v -208 -16 0
v -208 0 0
v -224 -16 0
v -224 0 0
v -240 -16 0
v -240 0 0
v -256 -16 0
v -256 0 0
v -272 -16 0
v -272 0 0
v -288 -16 0
v -288 0 0
v -304 -16 0
v -304 0 0
v -320 -16 0
v -320 0 0
v -336 -16 0
v -336 0 0
v -352 -16 0
v -352 0 0
v -368 -16 0
v -368 0 0
v -384 -16 0
v -384 0 0
v -400 -16 0
v -400 0 0
v -416 -16 0
v -416 0 0
v -432 -16 0
v -432 0 0
v -448 -16 0
v -448 0 0
v -464 -16 0
v -464 0 0
v -480 -16 0
v -480 0 0
v 0 -32 0
v -16 -32 0
v -32 -32 0
v -48 -32 0
v -64 -32 0
v -80 -32 0
v -96 -32 0
v -112 -32 0
v -128 -32 0
v -144 -32 0
v -160 -32 0
v -176 -32 0
v -192 -32 0
v -208 -32 0
v -224 -32 0
v -240 -32 0
v -256 -32 0
v -272 -32 0
v -288 -32 0
v -304 -32 0
v -320 -32 0
v -336 -32 0
v -352 -32 0
v -368 -32 0
v -384 -32 0
v -400 -32 0
v -416 -32 0
v -432 -32 0
v -448 -32 0
v -464 -32 0
v -480 -32 0
v 0 -48 0
v -16 -48 0
v -32 -48 0
v -48 -48 0
v -64 -48 0
v -80 -48 0
v -96 -48 0
v -112 -48 0
v -128 -48 0
v -144 -48 0
v -160 -48 0
v -176 -48 0
v -192 -48 0
v -208 -48 0
v -224 -48 0
v -240 -48 0
v -256 -48 0
v -272 -48 0
v -288 -48 0
v -304 -48 0
v -320 -48 0
v -336 -48 0
v -352 -48 0
v -368 -48 0
v -384 -48 0
v -400 -48 0
v -416 -48 0
v -432 -48 0
v -448 -48 0
v -464 -48 0
v -480 -48 0
v 0 -64 0
v -16 -64 0
v -32 -64 0
v -48 -64 0
v -64 -64 0
v -80 -64 0
v -96 -64 0
v -112 -64 0
v -128 -64 0
v -144 -64 0
v -160 -64 0
v -176 -64 0
v -192 -64 0
v -208 -64 0
v -224 -64 0
v -240 -64 0
v -256 -64 0
v -272 -64 0
v -288 -64 0
v -304 -64 0
v -320 -64 0
v -336 -64 0
v -352 -64 0
v -368 -64 0
v -384 -64 0
v -400 -64 0
v -416 -64 0
v -432 -64 0
v -448 -64 0
v -464 -64 0
v -480 -64 0
v 0 -80 0
v -16 -80 0
v -32 -80 0
v -48 -80 0
v -64 -80 0
v -80 -80 0
v -96 -80 0
v -112 -80 0
v -128 -80 0
v -144 -80 0
v -160 -80 0
v -176 -80 0
v -192 -80 0
v -208 -80 0
v -224 -80 0
v -240 -80 0
v -256 -80 0
v -272 -80 0
v -288 -80 0
v -304 -80 0
v -320 -80 0
v -336 -80 0
v -352 -80 0
v -368 -80 0
v -384 -80 0
v -400 -80 0
v -416 -80 0
v -432 -80 0
v -448 -80 0
v -464 -80 0
v -480 -80 0
v 0 -96 0
v -16 -96 0
v -32 -96 0
v -48 -96 0
v -64 -96 0
v -80 -96 0
v -96 -96 0
v -112 -96 0
v -128 -96 0
v -144 -96 0
v -160 -96 0
v -176 -96 0
v -192 -96 0
v -208 -96 0
v -224 -96 0
v -240 -96 0
v -256 -96 0
v -272 -96 0
v -288 -96 0
v -304 -96 0
v -320 -96 0
v -336 -96 0
v -352 -96 0
v -368 -96 0
v -384 -96 0
v -400 -96 0
v -416 -96 0
v -432 -96 0
v -448 -96 0
v -464 -96 0
v -480 -96 0
v 0 -112 0
v -16 -112 0
v -32 -112 0
v -48 -112 0
v -64 -112 0
v -80 -112 0
v -96 -112 0
v -112 -112 0
v -128 -112 0
v -144 -112 0
v -160 -112 0
v -176 -112 0
v -192 -112 0
v -208 -112 0
v -224 -112 0
v -240 -112 0
v -256 -112 0
v -272 -112 0
v -288 -112 0
v -304 -112 0
v -320 -112 0
v -336 -112 0
v -352 -112 0
v -368 -112 0
v -384 -112 0
v -400 -112 0
v -416 -112 0
v -432 -112 0
v -448 -112 0
v -464 -112 0
v -480 -112 0
v 0 -128 0
v -16 -128 0
v -32 -128 0
v -48 -128 0
v -64 -128 0
v -80 -128 0
v -96 -128 0
v -112 -128 0
v -128 -128 0
v -144 -128 0
v -160 -128 0
v -176 -128 0
v -192 -128 0
v -208 -128 0
v -224 -128 0
v -240 -128 0
v -256 -128 0
v -272 -128 0
v -288 -128 0
v -304 -128 0
v -320 -128 0
v -336 -128 0
v -352 -128 0
v -368 -128 0
v -384 -128 0
v -400 -128 0
v -416 -128 0
v -432 -128 0
v -448 -128 0
v -464 -128 0
v -480 -128 0

# Texture Coorindates (Count = 156)
vt 0.0001220703 0.7761221
vt 0.03187793 0.7761221
vt 0.03187793 0.807878
vt 0.0001220703 0.807878
vt 0.1601221 0.6801221
vt 0.1918779 0.6801221
vt 0.1918779 0.7118779
vt 0.1601221 0.7118779
vt 0.1921221 0.6801221
vt 0.2238779 0.6801221
vt 0.2238779 0.7118779
vt 0.1921221 0.7118779
vt 0.2241221 0.6801221
vt 0.2558779 0.6801221
vt 0.2558779 0.7118779
vt 0.2241221 0.7118779
vt 0.1601221 0.6161221
vt 0.1918779 0.6161221
vt 0.1918779 0.6478779
vt 0.1601221 0.6478779
vt 0.1921221 0.6161221
vt 0.2238779 0.6161221
vt 0.2238779 0.6478779
vt 0.1921221 0.6478779
vt 0.2241221 0.6161221
vt 0.2558779 0.6161221
vt 0.2558779 0.6478779
vt 0.2241221 0.6478779
vt 0.1601221 0.6481221
vt 0.1918779 0.6481221
vt 0.1918779 0.6798779
vt 0.1601221 0.6798779
vt 0.1921221 0.6481221
vt 0.2238779 0.6481221
vt 0.2238779 0.6798779
vt 0.1921221 0.6798779
vt 0.2241221 0.6481221
vt 0.2558779 0.6481221
vt 0.2558779 0.6798779
vt 0.2241221 0.6798779
vt 0.1281221 0.6481221
vt 0.1598779 0.6481221
vt 0.1598779 0.6798779
vt 0.1281221 0.6798779
vt 0.09612207 0.6801221
vt 0.1278779 0.6801221
vt 0.1278779 0.7118779
vt 0.09612207 0.7118779
vt 0.0001220703 0.6801221
vt 0.03187793 0.6801221
vt 0.03187793 0.7118779
vt 0.0001220703 0.7118779
vt 0.1281221 0.6161221
vt 0.1598779 0.6161221
vt 0.1598779 0.6478779
vt 0.1281221 0.6478779
vt 0.0001220703 0.5841221
vt 0.03187793 0.5841221
vt 0.03187793 0.6158779
vt 0.0001220703 0.6158779
vt 0.09612207 0.6161221
vt 0.1278779 0.6161221
vt 0.1278779 0.6478779
vt 0.09612207 0.6478779
vt 0.03212207 0.6481221
vt 0.06387793 0.6481221
vt 0.06387793 0.6798779
vt 0.03212207 0.6798779
vt 0.06412207 0.6481221
vt 0.09587793 0.6481221
vt 0.09587793 0.6798779
vt 0.06412207 0.6798779
vt 0.09612207 0.6481221
vt 0.1278779 0.6481221
vt 0.1278779 0.6798779
vt 0.09612207 0.6798779
vt 0.06412207 0.6161221
vt 0.09587793 0.6161221
vt 0.09587793 0.6478779
vt 0.06412207 0.6478779
vt 0.03212207 0.6161221
vt 0.06387793 0.6161221
vt 0.06387793 0.6478779
vt 0.03212207 0.6478779
vt 0.0001220703 0.6161221
vt 0.03187793 0.6161221
vt 0.03187793 0.6478779
vt 0.0001220703 0.6478779
vt 0.03212207 0.5841221
vt 0.06387793 0.5841221
vt 0.06387793 0.6158779
vt 0.03212207 0.6158779
vt 0.06412207 0.5841221
vt 0.09587793 0.5841221
vt 0.09587793 0.6158779
vt 0.06412207 0.6158779
vt 0.0001220703 0.6481221
vt 0.03187793 0.6481221
vt 0.03187793 0.6798779
vt 0.0001220703 0.6798779
vt 0.0001220703 0.7121221
vt 0.03187793 0.7121221
vt 0.03187793 0.7438779
vt 0.0001220703 0.7438779
vt 0.03212207 0.7121221
vt 0.06387793 0.7121221
vt 0.06387793 0.7438779
vt 0.03212207 0.7438779
vt 0.06412207 0.6801221
vt 0.09587793 0.6801221
vt 0.09587793 0.7118779
vt 0.06412207 0.7118779
vt 0.09612207 0.5841221
vt 0.1278779 0.5841221
vt 0.1278779 0.6158779
vt 0.09612207 0.6158779
vt 0.1281221 0.5841221
vt 0.1598779 0.5841221
vt 0.1598779 0.6158779
vt 0.1281221 0.6158779
vt 0.2241221 0.5841221
vt 0.2558779 0.5841221
vt 0.2558779 0.6158779
vt 0.2241221 0.6158779
vt 0.2561221 0.5841221
vt 0.2878779 0.5841221
vt 0.2878779 0.6158779
vt 0.2561221 0.6158779
vt 0.06412207 0.7121221
vt 0.09587793 0.7121221
vt 0.09587793 0.7438779
vt 0.06412207 0.7438779
vt 0.09612207 0.7121221
vt 0.1278779 0.7121221
vt 0.1278779 0.7438779
vt 0.09612207 0.7438779
vt 0.1281221 0.7121221
vt 0.1598779 0.7121221
vt 0.1598779 0.7438779
vt 0.1281221 0.7438779
vt 0.1601221 0.5841221
vt 0.1918779 0.5841221
vt 0.1918779 0.6158779
vt 0.1601221 0.6158779
vt 0.1921221 0.5841221
vt 0.2238779 0.5841221
vt 0.2238779 0.6158779
vt 0.1921221 0.6158779
vt 0.1281221 0.6801221
vt 0.1598779 0.6801221
vt 0.1598779 0.7118779
vt 0.1281221 0.7118779
vt 0.2561221 0.7121221
vt 0.2878779 0.7121221
vt 0.2878779 0.7438779
vt 0.2561221 0.7438779

# Normal
vn 0 0 -1

# Groups (Count = 4)
g mesh_[00]_[00]
f  1/1/1  2/2/1  3/3/1  4/4/1 
f  2/1/1  5/2/1  6/3/1  3/4/1 
f  5/1/1  7/2/1  8/3/1  6/4/1 
f  7/1/1  9/2/1  10/3/1  8/4/1 
f  9/1/1  11/2/1  12/3/1  10/4/1 
f  11/1/1  13/2/1  14/3/1  12/4/1 
f  13/1/1  15/2/1  16/3/1  14/4/1 
f  15/1/1  17/2/1  18/3/1  16/4/1 
f  17/1/1  19/2/1  20/3/1  18/4/1 
f  19/1/1  21/2/1  22/3/1  20/4/1 
f  21/1/1  23/2/1  24/3/1  22/4/1 
f  23/1/1  25/2/1  26/3/1  24/4/1 
f  25/1/1  27/2/1  28/3/1  26/4/1 
f  27/1/1  29/2/1  30/3/1  28/4/1 
f  29/1/1  31/2/1  32/3/1  30/4/1 
f  31/1/1  33/2/1  34/3/1  32/4/1 
f  33/1/1  35/2/1  36/3/1  34/4/1 
f  35/1/1  37/2/1  38/3/1  36/4/1 
f  37/1/1  39/2/1  40/3/1  38/4/1 
f  39/1/1  41/2/1  42/3/1  40/4/1 
f  41/1/1  43/2/1  44/3/1  42/4/1 
f  43/1/1  45/2/1  46/3/1  44/4/1 
f  45/1/1  47/2/1  48/3/1  46/4/1 
f  47/1/1  49/2/1  50/3/1  48/4/1 
f  49/1/1  51/2/1  52/3/1  50/4/1 
f  51/1/1  53/2/1  54/3/1  52/4/1 
f  53/1/1  55/2/1  56/3/1  54/4/1 
f  55/1/1  57/2/1  58/3/1  56/4/1 
f  57/1/1  59/2/1  60/3/1  58/4/1 
f  59/1/1  61/2/1  62/3/1  60/4/1 
f  63/1/1  64/2/1  2/3/1  1/4/1 
f  64/1/1  65/2/1  5/3/1  2/4/1 
f  65/1/1  66/2/1  7/3/1  5/4/1 
f  66/1/1  67/2/1  9/3/1  7/4/1 
f  67/1/1  68/2/1  11/3/1  9/4/1 
f  68/1/1  69/2/1  13/3/1  11/4/1 
f  69/1/1  70/2/1  15/3/1  13/4/1 
f  70/1/1  71/2/1  17/3/1  15/4/1 
f  71/1/1  72/2/1  19/3/1  17/4/1 
f  72/1/1  73/2/1  21/3/1  19/4/1 
f  73/1/1  74/2/1  23/3/1  21/4/1 
f  74/1/1  75/2/1  25/3/1  23/4/1 
f  75/1/1  76/2/1  27/3/1  25/4/1 
f  76/1/1  77/2/1  29/3/1  27/4/1 
f  77/1/1  78/2/1  31/3/1  29/4/1 
f  78/1/1  79/2/1  33/3/1  31/4/1 
f  79/1/1  80/2/1  35/3/1  33/4/1 
f  80/1/1  81/2/1  37/3/1  35/4/1 
f  81/1/1  82/2/1  39/3/1  37/4/1 
f  82/1/1  83/2/1  41/3/1  39/4/1 
f  83/1/1  84/2/1  43/3/1  41/4/1 
f  84/1/1  85/2/1  45/3/1  43/4/1 
f  85/1/1  86/2/1  47/3/1  45/4/1 
f  86/1/1  87/2/1  49/3/1  47/4/1 
f  87/1/1  88/2/1  51/3/1  49/4/1 
f  88/1/1  89/2/1  53/3/1  51/4/1 
f  89/1/1  90/2/1  55/3/1  53/4/1 
f  90/1/1  91/2/1  57/3/1  55/4/1 
f  91/1/1  92/2/1  59/3/1  57/4/1 
f  92/1/1  93/2/1  61/3/1  59/4/1 
f  94/1/1  95/2/1  64/3/1  63/4/1 
f  95/1/1  96/2/1  65/3/1  64/4/1 
f  96/1/1  97/2/1  66/3/1  65/4/1 
f  97/1/1  98/2/1  67/3/1  66/4/1 
f  98/1/1  99/2/1  68/3/1  67/4/1 
f  99/1/1  100/2/1  69/3/1  68/4/1 
f  100/1/1  101/2/1  70/3/1  69/4/1 
f  101/1/1  102/2/1  71/3/1  70/4/1 
f  102/1/1  103/2/1  72/3/1  71/4/1 
f  103/1/1  104/2/1  73/3/1  72/4/1 
f  104/1/1  105/2/1  74/3/1  73/4/1 
f  105/1/1  106/2/1  75/3/1  74/4/1 
f  106/1/1  107/2/1  76/3/1  75/4/1 
f  107/1/1  108/2/1  77/3/1  76/4/1 
f  108/1/1  109/2/1  78/3/1  77/4/1 
f  109/1/1  110/2/1  79/3/1  78/4/1 
f  110/1/1  111/2/1  80/3/1  79/4/1 
f  111/1/1  112/2/1  81/3/1  80/4/1 
f  112/1/1  113/2/1  82/3/1  81/4/1 
f  113/1/1  114/2/1  83/3/1  82/4/1 
f  114/1/1  115/2/1  84/3/1  83/4/1 
f  115/1/1  116/2/1  85/3/1  84/4/1 
f  116/1/1  117/2/1  86/3/1  85/4/1 
f  117/1/1  118/2/1  87/3/1  86/4/1 
f  118/1/1  119/2/1  88/3/1  87/4/1 
f  119/1/1  120/2/1  89/3/1  88/4/1 
f  120/1/1  121/2/1  90/3/1  89/4/1 
f  121/1/1  122/2/1  91/3/1  90/4/1 
f  122/1/1  123/2/1  92/3/1  91/4/1 
f  123/1/1  124/2/1  93/3/1  92/4/1 
f  125/1/1  126/2/1  95/3/1  94/4/1 
f  126/1/1  127/2/1  96/3/1  95/4/1 
f  127/1/1  128/2/1  97/3/1  96/4/1 
f  128/1/1  129/2/1  98/3/1  97/4/1 
f  129/1/1  130/2/1  99/3/1  98/4/1 
f  130/1/1  131/2/1  100/3/1  99/4/1 
f  131/1/1  132/2/1  101/3/1  100/4/1 
f  132/1/1  133/2/1  102/3/1  101/4/1 
f  133/1/1  134/2/1  103/3/1  102/4/1 
f  134/1/1  135/2/1  104/3/1  103/4/1 
f  135/1/1  136/2/1  105/3/1  104/4/1 
f  136/1/1  137/2/1  106/3/1  105/4/1 
f  137/1/1  138/2/1  107/3/1  106/4/1 
f  138/1/1  139/2/1  108/3/1  107/4/1 
f  139/1/1  140/2/1  109/3/1  108/4/1 
f  140/1/1  141/2/1  110/3/1  109/4/1 
f  141/1/1  142/2/1  111/3/1  110/4/1 
f  142/1/1  143/2/1  112/3/1  111/4/1 
f  143/1/1  144/2/1  113/3/1  112/4/1 
f  144/1/1  145/2/1  114/3/1  113/4/1 
f  145/1/1  146/2/1  115/3/1  114/4/1 
f  146/1/1  147/2/1  116/3/1  115/4/1 
f  147/1/1  148/2/1  117/3/1  116/4/1 
f  148/1/1  149/2/1  118/3/1  117/4/1 
f  149/1/1  150/2/1  119/3/1  118/4/1 
f  150/1/1  151/2/1  120/3/1  119/4/1 
f  151/1/1  152/2/1  121/3/1  120/4/1 
f  152/1/1  153/2/1  122/3/1  121/4/1 
f  153/1/1  154/2/1  123/3/1  122/4/1 
f  154/1/1  155/2/1  124/3/1  123/4/1 
f  156/1/1  157/2/1  126/3/1  125/4/1 
f  157/1/1  158/2/1  127/3/1  126/4/1 
f  158/1/1  159/2/1  128/3/1  127/4/1 
f  159/1/1  160/2/1  129/3/1  128/4/1 
f  160/1/1  161/2/1  130/3/1  129/4/1 
f  161/1/1  162/2/1  131/3/1  130/4/1 
f  162/1/1  163/2/1  132/3/1  131/4/1 
f  163/1/1  164/2/1  133/3/1  132/4/1 
f  164/1/1  165/2/1  134/3/1  133/4/1 
f  165/1/1  166/2/1  135/3/1  134/4/1 
f  166/1/1  167/2/1  136/3/1  135/4/1 
f  167/1/1  168/2/1  137/3/1  136/4/1 
f  168/1/1  169/2/1  138/3/1  137/4/1 
f  169/1/1  170/2/1  139/3/1  138/4/1 
f  170/1/1  171/2/1  140/3/1  139/4/1 
f  171/1/1  172/2/1  141/3/1  140/4/1 
f  172/1/1  173/2/1  142/3/1  141/4/1 
f  173/1/1  174/2/1  143/3/1  142/4/1 
f  174/1/1  175/2/1  144/3/1  143/4/1 
f  175/1/1  176/2/1  145/3/1  144/4/1 
f  176/1/1  177/2/1  146/3/1  145/4/1 
f  177/1/1  178/2/1  147/3/1  146/4/1 
f  178/1/1  179/2/1  148/3/1  147/4/1 
f  179/1/1  180/2/1  149/3/1  148/4/1 
f  180/1/1  181/2/1  150/3/1  149/4/1 
f  181/1/1  182/2/1  151/3/1  150/4/1 
f  182/1/1  183/2/1  152/3/1  151/4/1 
f  183/1/1  184/2/1  153/3/1  152/4/1 
f  184/1/1  185/2/1  154/3/1  153/4/1 
f  185/1/1  186/2/1  155/3/1  154/4/1 
f  187/1/1  188/2/1  157/3/1  156/4/1 
f  188/1/1  189/2/1  158/3/1  157/4/1 
f  189/1/1  190/2/1  159/3/1  158/4/1 
f  190/1/1  191/2/1  160/3/1  159/4/1 
f  191/1/1  192/2/1  161/3/1  160/4/1 
f  192/1/1  193/2/1  162/3/1  161/4/1 
f  193/1/1  194/2/1  163/3/1  162/4/1 
f  194/1/1  195/2/1  164/3/1  163/4/1 
f  195/1/1  196/2/1  165/3/1  164/4/1 
f  196/1/1  197/2/1  166/3/1  165/4/1 
f  197/1/1  198/2/1  167/3/1  166/4/1 
f  198/1/1  199/2/1  168/3/1  167/4/1 
f  199/1/1  200/2/1  169/3/1  168/4/1 
f  200/1/1  201/2/1  170/3/1  169/4/1 
f  201/1/1  202/2/1  171/3/1  170/4/1 
f  202/1/1  203/2/1  172/3/1  171/4/1 
f  203/1/1  204/2/1  173/3/1  172/4/1 
f  204/1/1  205/2/1  174/3/1  173/4/1 
f  205/1/1  206/2/1  175/3/1  174/4/1 
f  206/1/1  207/2/1  176/3/1  175/4/1 
f  207/1/1  208/2/1  177/3/1  176/4/1 
f  208/1/1  209/2/1  178/3/1  177/4/1 
f  209/1/1  210/2/1  179/3/1  178/4/1 
f  210/1/1  211/2/1  180/3/1  179/4/1 
f  211/1/1  212/2/1  181/3/1  180/4/1 
f  212/1/1  213/2/1  182/3/1  181/4/1 
f  213/1/1  214/2/1  183/3/1  182/4/1 
f  214/1/1  215/2/1  184/3/1  183/4/1 
f  215/1/1  216/2/1  185/3/1  184/4/1 
f  216/1/1  217/2/1  186/3/1  185/4/1 
f  218/1/1  219/2/1  188/3/1  187/4/1 
f  219/1/1  220/2/1  189/3/1  188/4/1 
f  220/1/1  221/2/1  190/3/1  189/4/1 
f  221/1/1  222/2/1  191/3/1  190/4/1 
f  222/1/1  223/2/1  192/3/1  191/4/1 
f  223/1/1  224/2/1  193/3/1  192/4/1 
f  224/1/1  225/2/1  194/3/1  193/4/1 
f  225/1/1  226/2/1  195/3/1  194/4/1 
f  226/1/1  227/2/1  196/3/1  195/4/1 
f  227/1/1  228/2/1  197/3/1  196/4/1 
f  228/1/1  229/2/1  198/3/1  197/4/1 
f  229/1/1  230/2/1  199/3/1  198/4/1 
f  230/1/1  231/2/1  200/3/1  199/4/1 
f  231/1/1  232/2/1  201/3/1  200/4/1 
f  232/1/1  233/2/1  202/3/1  201/4/1 
f  233/1/1  234/2/1  203/3/1  202/4/1 
f  234/1/1  235/2/1  204/3/1  203/4/1 
f  235/1/1  236/2/1  205/3/1  204/4/1 
f  236/1/1  237/2/1  206/3/1  205/4/1 
f  237/1/1  238/2/1  207/3/1  206/4/1 
f  238/1/1  239/2/1  208/3/1  207/4/1 
f  239/1/1  240/2/1  209/3/1  208/4/1 
f  240/1/1  241/2/1  210/3/1  209/4/1 
f  241/1/1  242/2/1  211/3/1  210/4/1 
f  242/1/1  243/2/1  212/3/1  211/4/1 
f  243/1/1  244/2/1  213/3/1  212/4/1 
f  244/1/1  245/2/1  214/3/1  213/4/1 
f  245/1/1  246/2/1  215/3/1  214/4/1 
f  246/1/1  247/2/1  216/3/1  215/4/1 
f  247/1/1  248/2/1  217/3/1  216/4/1 
f  249/1/1  250/2/1  219/3/1  218/4/1 
f  250/1/1  251/2/1  220/3/1  219/4/1 
f  251/1/1  252/2/1  221/3/1  220/4/1 
f  252/1/1  253/2/1  222/3/1  221/4/1 
f  253/1/1  254/2/1  223/3/1  222/4/1 
f  254/1/1  255/2/1  224/3/1  223/4/1 
f  255/1/1  256/2/1  225/3/1  224/4/1 
f  256/1/1  257/2/1  226/3/1  225/4/1 
f  257/1/1  258/2/1  227/3/1  226/4/1 
f  258/1/1  259/2/1  228/3/1  227/4/1 
f  259/1/1  260/2/1  229/3/1  228/4/1 
f  260/1/1  261/2/1  230/3/1  229/4/1 
f  261/1/1  262/2/1  231/3/1  230/4/1 
f  262/1/1  263/2/1  232/3/1  231/4/1 
f  263/1/1  264/2/1  233/3/1  232/4/1 
f  264/1/1  265/2/1  234/3/1  233/4/1 
f  265/1/1  266/2/1  235/3/1  234/4/1 
f  266/1/1  267/2/1  236/3/1  235/4/1 
f  267/1/1  268/2/1  237/3/1  236/4/1 
f  268/1/1  269/2/1  238/3/1  237/4/1 
f  269/1/1  270/2/1  239/3/1  238/4/1 
f  270/1/1  271/2/1  240/3/1  239/4/1 
f  271/1/1  272/2/1  241/3/1  240/4/1 
f  272/1/1  273/2/1  242/3/1  241/4/1 
f  273/1/1  274/2/1  243/3/1  242/4/1 
f  274/1/1  275/2/1  244/3/1  243/4/1 
f  275/1/1  276/2/1  245/3/1  244/4/1 
f  276/1/1  277/2/1  246/3/1  245/4/1 
f  277/1/1  278/2/1  247/3/1  246/4/1 
f  278/1/1  279/2/1  248/3/1  247/4/1 
g mesh_[01]_[00]
f  84/5/1  85/6/1  45/7/1  43/8/1 
f  85/9/1  86/10/1  47/11/1  45/12/1 
f  86/9/1  87/10/1  49/11/1  47/12/1 
f  87/13/1  88/14/1  51/15/1  49/16/1 
f  95/5/1  96/6/1  65/7/1  64/8/1 
f  96/9/1  97/10/1  66/11/1  65/12/1 
f  97/9/1  98/10/1  67/11/1  66/12/1 
f  98/13/1  99/14/1  68/15/1  67/16/1 
f  107/17/1  108/18/1  77/19/1  76/20/1 
f  108/21/1  109/22/1  78/23/1  77/24/1 
f  109/21/1  110/22/1  79/23/1  78/24/1 
f  110/21/1  111/22/1  80/23/1  79/24/1 
f  111/25/1  112/26/1  81/27/1  80/28/1 
f  115/29/1  116/30/1  85/31/1  84/32/1 
f  116/33/1  117/34/1  86/35/1  85/36/1 
f  117/33/1  118/34/1  87/35/1  86/36/1 
f  118/37/1  119/38/1  88/39/1  87/40/1 
f  126/29/1  127/30/1  96/31/1  95/32/1 
f  127/33/1  128/34/1  97/35/1  96/36/1 
f  128/33/1  129/34/1  98/35/1  97/36/1 
f  129/37/1  130/38/1  99/39/1  98/40/1 
f  146/17/1  147/18/1  116/19/1  115/20/1 
f  147/21/1  148/22/1  117/23/1  116/24/1 
f  148/21/1  149/22/1  118/23/1  117/24/1 
f  149/25/1  150/26/1  119/27/1  118/28/1 
f  157/17/1  158/18/1  127/19/1  126/20/1 
f  158/21/1  159/22/1  128/23/1  127/24/1 
f  159/21/1  160/22/1  129/23/1  128/24/1 
f  160/25/1  161/26/1  130/27/1  129/28/1 
g mesh_[02]_[00]
f  13/41/1  15/42/1  16/43/1  14/44/1 
f  15/41/1  17/42/1  18/43/1  16/44/1 
f  17/41/1  19/42/1  20/43/1  18/44/1 
f  19/41/1  21/42/1  22/43/1  20/44/1 
f  35/45/1  37/46/1  38/47/1  36/48/1 
f  64/49/1  65/50/1  5/51/1  2/52/1 
f  67/49/1  68/50/1  11/51/1  9/52/1 
f  69/53/1  70/54/1  15/55/1  13/56/1 
f  70/53/1  71/54/1  17/55/1  15/56/1 
f  71/53/1  72/54/1  19/55/1  17/56/1 
f  72/53/1  73/54/1  21/55/1  19/56/1 
f  73/57/1  74/58/1  23/59/1  21/60/1 
f  74/61/1  75/62/1  25/63/1  23/64/1 
f  76/65/1  77/66/1  29/67/1  27/68/1 
f  77/65/1  78/66/1  31/67/1  29/68/1 
f  78/69/1  79/70/1  33/71/1  31/72/1 
f  79/65/1  80/66/1  35/67/1  33/68/1 
f  80/73/1  81/74/1  37/75/1  35/76/1 
f  82/77/1  83/78/1  41/79/1  39/80/1 
f  83/81/1  84/82/1  43/83/1  41/84/1 
f  84/85/1  85/86/1  45/87/1  43/88/1 
f  85/89/1  86/90/1  47/91/1  45/92/1 
f  86/93/1  87/94/1  49/95/1  47/96/1 
f  87/85/1  88/86/1  51/87/1  49/88/1 
f  90/77/1  91/78/1  57/79/1  55/80/1 
f  91/57/1  92/58/1  59/59/1  57/60/1 
f  95/97/1  96/98/1  65/99/1  64/100/1 
f  96/101/1  97/102/1  66/103/1  65/104/1 
f  97/105/1  98/106/1  67/107/1  66/108/1 
f  98/97/1  99/98/1  68/99/1  67/100/1 
f  146/109/1  147/110/1  116/111/1  115/112/1 
f  147/113/1  148/114/1  117/115/1  116/116/1 
f  148/117/1  149/118/1  118/119/1  117/120/1 
f  149/109/1  150/110/1  119/111/1  118/112/1 
f  152/121/1  153/122/1  122/123/1  121/124/1 
f  153/125/1  154/126/1  123/127/1  122/128/1 
f  158/129/1  159/130/1  128/131/1  127/132/1 
f  159/133/1  160/134/1  129/135/1  128/136/1 
f  169/121/1  170/122/1  139/123/1  138/124/1 
f  170/125/1  171/126/1  140/127/1  139/128/1 
f  172/121/1  173/122/1  142/123/1  141/124/1 
f  173/125/1  174/126/1  143/127/1  142/128/1 
f  193/137/1  194/138/1  163/139/1  162/140/1 
f  198/137/1  199/138/1  168/139/1  167/140/1 
f  214/141/1  215/142/1  184/143/1  183/144/1 
f  215/145/1  216/146/1  185/147/1  184/148/1 
f  224/149/1  225/150/1  194/151/1  193/152/1 
f  229/149/1  230/150/1  199/151/1  198/152/1 
g mesh_[03]_[00]
f  1/153/1  2/154/1  3/155/1  4/156/1 
f  2/153/1  5/154/1  6/155/1  3/156/1 
f  5/153/1  7/154/1  8/155/1  6/156/1 
f  7/153/1  9/154/1  10/155/1  8/156/1 
f  9/153/1  11/154/1  12/155/1  10/156/1 
f  11/153/1  13/154/1  14/155/1  12/156/1 
f  21/153/1  23/154/1  24/155/1  22/156/1 
f  23/153/1  25/154/1  26/155/1  24/156/1 
f  25/153/1  27/154/1  28/155/1  26/156/1 
f  27/153/1  29/154/1  30/155/1  28/156/1 
f  29/153/1  31/154/1  32/155/1  30/156/1 
f  31/153/1  33/154/1  34/155/1  32/156/1 
f  33/153/1  35/154/1  36/155/1  34/156/1 
f  37/153/1  39/154/1  40/155/1  38/156/1 
f  39/153/1  41/154/1  42/155/1  40/156/1 
f  41/153/1  43/154/1  44/155/1  42/156/1 
f  43/153/1  45/154/1  46/155/1  44/156/1 
f  45/153/1  47/154/1  48/155/1  46/156/1 
f  47/153/1  49/154/1  50/155/1  48/156/1 
f  49/153/1  51/154/1  52/155/1  50/156/1 
f  51/153/1  53/154/1  54/155/1  52/156/1 
f  53/153/1  55/154/1  56/155/1  54/156/1 
f  55/153/1  57/154/1  58/155/1  56/156/1 
f  57/153/1  59/154/1  60/155/1  58/156/1 
f  59/153/1  61/154/1  62/155/1  60/156/1 
